<svg xmlns="http://www.w3.org/2000/svg" xmlns:xlink="http://www.w3.org/1999/xlink" viewBox="0 0 112 48"><path d="M 105.398 31.893 C 104.386 31.893 103.482 31.665 102.686 31.209 C 101.891 30.746 101.243 30.066 100.819 29.249 C 100.379 28.399 100.159 27.419 100.159 26.305 C 100.159 25.192 100.391 24.215 100.854 23.372 C 101.3 22.548 101.971 21.869 102.79 21.413 C 103.609 20.95 104.537 20.718 105.572 20.718 C 106.337 20.718 107.021 20.872 107.624 21.181 C 108.235 21.483 108.691 21.842 108.992 22.26 L 109.073 22.26 L 109.131 20.961 L 111.879 20.961 L 111.879 31.707 L 109.328 31.707 L 109.189 30.084 L 109.096 30.084 C 108.764 30.634 108.293 31.074 107.682 31.406 C 107.072 31.731 106.31 31.893 105.398 31.893 Z M 105.967 29.644 C 106.593 29.644 107.137 29.509 107.601 29.238 C 108.064 28.961 108.435 28.554 108.668 28.068 C 108.915 27.565 109.039 26.978 109.039 26.305 C 109.039 25.625 108.915 25.034 108.668 24.532 C 108.439 24.049 108.072 23.646 107.613 23.372 C 107.157 23.094 106.616 22.955 105.99 22.955 C 105.395 22.955 104.877 23.098 104.436 23.384 C 103.994 23.674 103.644 24.084 103.428 24.567 C 103.196 25.069 103.08 25.648 103.08 26.305 C 103.08 27.009 103.196 27.611 103.428 28.114 C 103.667 28.608 104.004 28.987 104.436 29.25 C 104.877 29.513 105.387 29.644 105.967 29.644 Z M 92.832 31.707 L 92.832 20.961 L 95.313 20.961 L 95.418 22.665 L 95.488 22.665 C 95.82 21.993 96.241 21.502 96.751 21.193 C 97.261 20.876 97.918 20.718 98.721 20.718 C 99.061 20.718 99.394 20.768 99.718 20.868 L 99.382 23.349 C 99.221 23.315 99.058 23.288 98.895 23.269 C 98.718 23.252 98.54 23.244 98.362 23.245 C 97.872 23.236 97.388 23.356 96.959 23.593 C 96.552 23.822 96.225 24.17 96.02 24.59 C 95.796 25.03 95.684 25.556 95.684 26.166 L 95.684 31.707 Z M 90.873 31.488 C 90.53 31.606 90.177 31.692 89.818 31.743 C 89.416 31.813 89.015 31.847 88.613 31.847 C 87.477 31.847 86.619 31.55 86.039 30.955 C 85.467 30.36 85.181 29.44 85.181 28.195 L 85.181 23.06 L 83.581 23.06 L 83.581 20.962 L 85.181 20.962 L 85.181 18.284 L 88.033 18.284 L 88.033 20.962 L 90.746 20.962 L 90.746 23.06 L 88.033 23.06 L 88.033 28.207 C 88.033 29.104 88.369 29.552 89.042 29.552 C 89.467 29.552 89.903 29.479 90.352 29.332 Z M 78.377 31.905 C 76.36 31.905 74.767 31.349 73.601 30.235 L 74.945 28.242 C 75.44 28.697 76.009 29.065 76.626 29.332 C 77.214 29.579 77.77 29.702 78.296 29.702 C 78.798 29.702 79.18 29.622 79.443 29.459 C 79.713 29.289 79.849 29.061 79.849 28.775 C 79.854 28.517 79.743 28.27 79.547 28.103 C 79.354 27.925 79.022 27.774 78.551 27.651 L 76.707 27.164 C 75.741 26.909 75.007 26.519 74.505 25.994 C 74.003 25.46 73.751 24.768 73.751 23.918 C 73.751 23.331 73.917 22.794 74.25 22.307 C 74.582 21.812 75.061 21.422 75.687 21.136 C 76.321 20.842 77.063 20.696 77.913 20.696 C 78.779 20.696 79.571 20.831 80.289 21.101 C 81.009 21.371 81.677 21.789 82.295 22.353 L 80.73 24.103 C 80.33 23.749 79.871 23.466 79.374 23.269 C 78.919 23.076 78.43 22.973 77.936 22.967 C 77.426 22.967 77.036 23.064 76.766 23.257 C 76.503 23.443 76.371 23.675 76.371 23.953 C 76.364 24.169 76.454 24.377 76.615 24.521 C 76.785 24.668 77.082 24.799 77.507 24.915 L 79.385 25.437 C 80.428 25.73 81.213 26.136 81.738 26.654 C 82.264 27.164 82.527 27.824 82.527 28.636 C 82.536 29.231 82.371 29.815 82.052 30.317 C 81.735 30.812 81.263 31.202 80.637 31.487 C 80.019 31.767 79.265 31.905 78.377 31.905 Z M 69.532 19.339 C 68.991 19.339 68.562 19.184 68.245 18.875 C 67.928 18.565 67.769 18.16 67.769 17.658 C 67.769 17.163 67.928 16.765 68.245 16.464 C 68.562 16.154 68.991 16 69.532 16 C 70.072 16 70.502 16.155 70.818 16.464 C 71.143 16.765 71.305 17.164 71.305 17.658 C 71.305 18.152 71.143 18.558 70.818 18.875 C 70.494 19.185 70.065 19.339 69.532 19.339 Z M 70.9 31.708 L 68.164 31.708 L 68.164 20.962 L 70.9 20.962 Z M 66.216 31.708 L 63.133 31.708 L 61.997 28.462 L 55.957 28.462 L 54.809 31.708 L 51.691 31.708 L 57.336 17.252 L 60.594 17.252 Z M 58.936 20.046 L 56.768 26.166 L 61.197 26.166 L 59.064 20.046 Z" fill="rgb(93,83,93)"></path><path d="M 0 16.23 C 0 7.266 7.266 0 16.23 0 L 31.77 0 C 40.734 0 48 7.266 48 16.23 L 48 31.77 C 48 40.734 40.734 48 31.77 48 L 16.23 48 C 7.266 48 0 40.734 0 31.77 Z" fill="rgb(217, 243, 120)"></path><g transform="translate(12.399 11.162)" id="ss12571085936_3"><path d="M 0.001 0.001 L 23.826 0.001 L 23.826 23.703 L 0.001 23.703 Z" fill="transparent"></path><path d="M 23.827 20.522 C 23.764 19.29 23.597 18.192 23.354 17.013 C 22.342 12.034 20.169 7.38 16.515 3.394 C 15.254 2.018 13.792 0.712 13.237 0.329 C 12.877 0.079 12.262 -0.011 11.917 0.001 C 11.57 -0.01 10.957 0.079 10.592 0.329 C 10.037 0.712 8.575 2.018 7.313 3.395 C 3.659 7.38 1.49 12.035 0.474 17.013 C 0.236 18.193 0.069 19.29 0.002 20.522 C -0.02 20.939 0.117 21.72 0.366 22.055 C 1.036 22.945 2.335 23.636 3.518 23.703 C 3.518 23.536 3.228 20.109 4.337 16.131 C 5.509 11.914 7.749 8.07 10.841 4.972 C 11.101 4.712 11.566 4.544 11.909 4.555 C 12.251 4.545 12.716 4.712 12.977 4.972 C 16.069 8.071 18.309 11.915 19.481 16.132 C 20.59 20.112 20.303 23.54 20.3 23.703 C 21.483 23.64 22.781 22.944 23.451 22.055 C 23.704 21.72 23.838 20.942 23.816 20.522 L 23.826 20.522 Z" fill="rgb(93,83,91)"></path></g></svg>